<?xml version="1.0" encoding="UTF-8" standalone="no"?>
<svg
   xmlns:dc="http://purl.org/dc/elements/1.1/"
   xmlns:cc="http://creativecommons.org/ns#"
   xmlns:rdf="http://www.w3.org/1999/02/22-rdf-syntax-ns#"
   xmlns:svg="http://www.w3.org/2000/svg"
   xmlns="http://www.w3.org/2000/svg"
   xmlns:sodipodi="http://sodipodi.sourceforge.net/DTD/sodipodi-0.dtd"
   xmlns:inkscape="http://www.inkscape.org/namespaces/inkscape"
   width="1179.2126"
   height="272.12598"
   viewBox="0 0 312 72"
   version="1.1"
   id="svg8"
   inkscape:version="1.0.1 (3bc2e813f5, 2020-09-07)"
   sodipodi:docname="TheFatRat.svg">
  <defs
     id="defs2" />
  <sodipodi:namedview
     id="base"
     pagecolor="#ffffff"
     bordercolor="#666666"
     borderopacity="1.0"
     inkscape:pageopacity="0.0"
     inkscape:pageshadow="2"
     inkscape:zoom="0.7071068"
     inkscape:cx="1028.139"
     inkscape:cy="312.94557"
     inkscape:document-units="mm"
     inkscape:current-layer="layer3"
     showgrid="false"
     inkscape:window-width="1920"
     inkscape:window-height="1013"
     inkscape:window-x="0"
     inkscape:window-y="0"
     inkscape:window-maximized="1"
     showguides="true"
     inkscape:guide-bbox="true"
     inkscape:document-rotation="0"
     units="px" />
  <metadata
     id="metadata5">
    <rdf:RDF>
      <cc:Work
         rdf:about="">
        <dc:format>image/svg+xml</dc:format>
        <dc:type
           rdf:resource="http://purl.org/dc/dcmitype/StillImage" />
        <dc:title></dc:title>
      </cc:Work>
    </rdf:RDF>
  </metadata>
  <g
     inkscape:groupmode="layer"
     id="layer3"
     inkscape:label="MainImage"
     style="display:inline" />
  <g
     inkscape:groupmode="layer"
     id="layer7"
     inkscape:label="T"
     style="display:inline">
    <path
       style="display:inline;fill:#363636;fill-opacity:1;stroke:#000000;stroke-width:0.065;stroke-linecap:butt;stroke-linejoin:miter;stroke-miterlimit:4;stroke-dasharray:none;stroke-opacity:1"
       d="m 115.46158,40.619696 h 4.05594 c 0.27903,-0.0144 0.28518,-0.0266 0.28518,0.24057 v 10.87064 c -0.003,0.29908 0.002,0.33646 0.24007,0.48378 l 4.43466,2.74152 c 0.29626,0.15698 0.26463,0.0935 0.26463,-0.24729 v -13.81211 c -0.0179,-0.28443 -0.0129,-0.2763 0.25646,-0.2763 h 3.74535 c 0.20008,-0.002 0.26491,-0.0387 0.40994,-0.17173 l 3.07429,-2.82045 c 0.60546,-0.61233 0.42287,-1.03722 -0.34171,-1.02647 l -19.04677,-0.0228 c -0.91082,-0.0567 -0.82873,0.34323 -0.34694,0.87553 l 2.61446,2.99648 c 0.11172,0.16558 0.16797,0.1686 0.35444,0.1686 z"
       id="path888"
       inkscape:connector-curvature="0"
       sodipodi:nodetypes="ccccccccccccccccc" />
    <path
       style="display:inline;fill:#d10036;fill-opacity:1;stroke:#000000;stroke-width:0.065;stroke-linecap:butt;stroke-linejoin:miter;stroke-miterlimit:4;stroke-dasharray:none;stroke-opacity:1"
       d="m 218.61997,40.642766 h 4.05594 c 0.27903,-0.0144 0.28518,-0.0266 0.28518,0.24057 v 10.87064 c -0.003,0.29908 0.002,0.33646 0.24007,0.48378 l 4.43466,2.74152 c 0.29626,0.15698 0.26463,0.0935 0.26463,-0.24729 v -13.81211 c -0.0179,-0.28443 -0.0129,-0.2763 0.25646,-0.2763 h 3.74535 c 0.20008,-0.002 0.26491,-0.0387 0.40994,-0.17173 l 3.07429,-2.82045 c 0.60546,-0.61233 0.42287,-1.03722 -0.34171,-1.02647 l -19.04677,-0.0228 c -0.91082,-0.0567 -0.82873,0.34323 -0.34694,0.87553 l 2.61446,2.99648 c 0.11172,0.16558 0.16797,0.1686 0.35444,0.1686 z"
       id="path888-1"
       inkscape:connector-curvature="0"
       sodipodi:nodetypes="ccccccccccccccccc" />
    <path
       style="display:inline;fill:#d10036;fill-opacity:1;stroke:#000000;stroke-width:0.065;stroke-linecap:butt;stroke-linejoin:miter;stroke-miterlimit:4;stroke-dasharray:none;stroke-opacity:1"
       d="m 282.49336,40.650866 h 4.05594 c 0.27903,-0.0144 0.28518,-0.0266 0.28518,0.24057 v 10.87064 c -0.003,0.29908 0.002,0.33646 0.24007,0.48378 l 4.43466,2.74152 c 0.29626,0.15698 0.26463,0.0935 0.26463,-0.24729 v -13.81211 c -0.0179,-0.28443 -0.0129,-0.2763 0.25646,-0.2763 h 3.74535 c 0.20008,-0.002 0.26491,-0.0387 0.40994,-0.17173 l 3.07429,-2.82045 c 0.60546,-0.61233 0.42287,-1.03722 -0.34171,-1.02647 l -19.04677,-0.0228 c -0.91082,-0.0567 -0.82873,0.34323 -0.34694,0.87553 l 2.61446,2.99648 c 0.11172,0.16558 0.16797,0.1686 0.35444,0.1686 z"
       id="path888-14"
       inkscape:connector-curvature="0"
       sodipodi:nodetypes="ccccccccccccccccc" />
  </g>
  <g
     inkscape:groupmode="layer"
     id="layer12"
     inkscape:label="R"
     style="display:inline">
    <path
       style="fill:#d10036;fill-opacity:1;stroke:#000000;stroke-width:0.0649999;stroke-linecap:butt;stroke-linejoin:miter;stroke-miterlimit:4;stroke-dasharray:none;stroke-opacity:1"
       d="m 254.02603,36.581831 c -0.0517,-0.0019 -0.10892,-0.0016 -0.17311,5.29e-4 h -15.33757 c -0.72887,0 -0.72787,0.03251 -0.73587,0.719852 v 14.990299 c 0,0.387109 -0.002,0.359286 0.40101,0.363286 h 4.84105 c 0.36554,0 0.37834,0.01302 0.38034,-0.355018 v -4.295344 c 0,-0.464211 -0.0179,-0.47694 0.45475,-0.47594 h 6.95358 c 0.3302,0 0.40777,0.05521 0.63976,0.278535 l 0.63923,0.73329 c 0.21479,0.246319 0.23937,0.349538 0.24236,0.70435 v 2.21175 c 0,0.60352 -0.0296,0.697386 0.53639,1.041797 l 4.0158,2.475301 c 0.86833,0.453779 1.13337,0.927576 1.13635,-0.259932 v -6.174301 c 0,-0.563909 -0.10572,-0.817721 -0.41341,-1.208712 l -1.74564,-1.815393 c -0.23701,-0.251248 -0.23034,-0.404175 -0.047,-0.631486 l 2.13836,-2.773474 c 0.19002,-0.29763 0.19886,-0.404569 -0.0615,-0.768427 l -3.15846,-4.287078 c -0.25647,-0.346236 -0.34441,-0.461695 -0.70642,-0.473874 z m -10.37972,4.346506 h 7.20885 c 0.24022,0.005 0.3392,0.05961 0.48525,0.198953 0.22709,0.222282 0.45326,0.465693 0.67749,0.702284 0.0938,0.12982 0.0871,0.368115 0.007,0.467153 -0.24182,0.236022 -0.51189,0.49869 -0.72448,0.70797 -0.18531,0.139509 -0.2178,0.168463 -0.42738,0.168463 h -7.22642 c -0.10364,0 -0.18707,-0.08338 -0.18707,-0.187069 v -1.870686 c 0,-0.10365 0.0834,-0.187068 0.18707,-0.187068 z"
       id="path1006"
       inkscape:connector-curvature="0" />
    <circle
       style="opacity:1;fill:#363636;fill-opacity:1;stroke:#000000;stroke-width:0;stroke-miterlimit:4;stroke-dasharray:none;stroke-opacity:1"
       id="path1018"
       cx="103.54044"
       cy="51.896301"
       r="3.433624" />
  </g>
  <g
     inkscape:groupmode="layer"
     id="layer8"
     inkscape:label="H"
     style="display:inline">
    <path
       style="fill:#363636;fill-opacity:1;stroke:#000000;stroke-width:0.065;stroke-linecap:butt;stroke-linejoin:miter;stroke-miterlimit:4;stroke-dasharray:none;stroke-opacity:1"
       d="m 135.21047,36.594946 h 4.78143 c 0.33814,-0.003 0.31809,0.0376 0.31938,0.37603 l 0.0216,5.6588 c -0.005,0.38841 0.0407,0.3799 0.35844,0.38191 h 7.47552 c 0.26756,-0.008 0.23846,-0.0149 0.23846,-0.26291 v -5.49756 c -0.003,-0.3398 0.0217,-0.36258 0.30058,-0.51754 l 4.52056,-2.51142 c 0.50338,-0.31085 0.46166,-0.27841 0.46166,0.27825 v 17.73166 c -0.01,0.31551 0.0296,0.31792 -0.26839,0.31792 h -4.69532 c -0.31907,0.007 -0.27018,-0.0337 -0.27018,-0.32225 v -5.35799 c -0.003,-0.24628 -0.007,-0.23846 -0.25069,-0.23846 h -7.74689 c -0.26494,-0.007 -0.27119,0.0502 -0.26903,0.22624 v 5.4326 c -0.003,0.25453 0.007,0.25986 -0.25069,0.25986 h -4.67592 c -0.33622,-10e-4 -0.30133,-0.0121 -0.30097,-0.3222 l 0.0178,-15.37332 c -0.0151,-0.26219 0.0568,-0.26394 0.23265,-0.25962 z"
       id="path925"
       inkscape:connector-curvature="0"
       sodipodi:nodetypes="ccccccccccccccccccccccccc" />
  </g>
  <g
     inkscape:groupmode="layer"
     id="layer10"
     inkscape:label="F">
    <path
       style="display:inline;fill:#d10036;fill-opacity:1;stroke:#000000;stroke-width:0.065;stroke-linecap:butt;stroke-linejoin:miter;stroke-miterlimit:4;stroke-dasharray:none;stroke-opacity:1"
       d="m 177.96048,37.044076 v 15.02523 c 0.003,0.30708 0.0133,0.32846 0.26179,0.46886 l 4.74501,2.6807 c 0.42285,0.24006 0.39321,0.14808 0.39447,-0.34527 l 0.0204,-8.01343 c -0.003,-0.28055 -0.006,-0.2807 0.24444,-0.27854 h 7.14675 c 0.25236,-0.005 0.31415,-0.0299 0.48304,-0.19829 l 3.32861,-3.31797 c 0.28217,-0.30755 0.32586,-0.2991 -0.12795,-0.2991 h -10.86216 c -0.22268,0.0126 -0.22263,-0.0629 -0.22263,-0.19565 v -1.65094 c 0.005,-0.29922 -0.0258,-0.30566 0.26299,-0.30566 h 9.41659 c 0.20398,0.007 0.26439,-0.0236 0.40266,-0.1799 l 3.11027,-3.51502 c 0.3184,-0.36581 0.17114,-0.34056 -0.1406,-0.34056 h -17.95983 c -0.51744,10e-4 -0.50383,-0.0247 -0.50383,0.46554 z"
       id="path931-0"
       inkscape:connector-curvature="0"
       sodipodi:nodetypes="ccccccccccccccccccccc" />
  </g>
  <g
     inkscape:groupmode="layer"
     id="layer9"
     inkscape:label="E"
     style="display:inline">
    <path
       style="display:inline;fill:#363636;fill-opacity:1;stroke:#000000;stroke-width:0.065;stroke-linecap:butt;stroke-linejoin:miter;stroke-miterlimit:4;stroke-dasharray:none;stroke-opacity:1"
       d="m 156.86753,37.093836 v 15.17499 c -0.005,0.3359 -0.0193,0.33018 0.2996,0.33018 h 13.91017 c 0.25688,-8e-5 0.31636,-0.0365 0.50036,-0.21679 l 3.17568,-3.5889 c 0.36539,-0.41702 0.28896,-0.35208 -0.21767,-0.35208 h -11.98476 c -0.25044,-0.001 -0.26173,0.0219 -0.26173,-0.22561 v -1.3057 c -0.003,-0.28055 -0.006,-0.2807 0.24444,-0.27854 h 7.14675 c 0.25236,-0.005 0.31415,-0.0299 0.48304,-0.19829 l 3.32861,-3.31797 c 0.28217,-0.30755 0.32586,-0.2991 -0.12795,-0.2991 h -10.86216 c -0.22268,0.0126 -0.22263,-0.0629 -0.22263,-0.19565 v -1.65094 c 0.005,-0.29922 -0.0258,-0.30566 0.26299,-0.30566 h 9.41659 c 0.20398,0.007 0.26439,-0.0236 0.40266,-0.1799 l 3.11027,-3.51502 c 0.3184,-0.36581 0.17114,-0.34056 -0.1406,-0.34056 h -17.95983 c -0.51744,10e-4 -0.50383,-0.0247 -0.50383,0.46554 z"
       id="path931"
       inkscape:connector-curvature="0"
       sodipodi:nodetypes="ccccccccccccccccccccccccc" />
  </g>
  <g
     inkscape:groupmode="layer"
     id="layer11"
     inkscape:label="A">
    <path
       style="display:inline;fill:#d10036;fill-opacity:1;stroke:#000000;stroke-width:0.0649999;stroke-linecap:butt;stroke-linejoin:miter;stroke-miterlimit:4;stroke-dasharray:none;stroke-opacity:1"
       d="m 200.33526,36.527572 c -0.34028,0 -0.44126,1.62e-4 -0.71986,0.255281 l -3.05769,2.972946 c -0.21499,0.20897 -0.25242,0.414803 -0.25167,0.599964 v 11.938288 c 0,0.522301 -0.0274,0.547468 0.50953,0.538469 h 4.61678 c 0.49422,0 0.45272,-0.0089 0.46302,-0.51263 v -3.704167 c 0,-0.304569 0.0339,-0.334766 0.45475,-0.347265 h 7.07088 c 0.47752,0.0041 0.45231,0.05232 0.45631,0.517279 v 3.236497 c 0,0.398679 -0.003,0.444341 0.3638,0.667141 l 4.57905,2.643767 c 0.69732,0.363271 0.77339,0.442807 0.76739,-0.277503 V 40.810515 c 0,-0.64044 0.004,-0.810083 -0.51314,-1.286743 l -2.87218,-2.669087 c -0.30068,-0.2794 -0.38885,-0.327113 -0.85628,-0.327113 z m 1.77508,4.418852 h 7.64398 c 0.10364,0 0.18707,0.08342 0.18707,0.187068 v 3.011186 c 0,0.103648 -0.0834,0.187068 -0.18707,0.187068 h -7.64398 c -0.10365,0 -0.18707,-0.08342 -0.18707,-0.187068 v -3.011186 c 0,-0.103648 0.0834,-0.187068 0.18707,-0.187068 z"
       id="path950" />
    <path
       style="display:inline;fill:#d10036;fill-opacity:1;stroke:#000000;stroke-width:0.0649999;stroke-linecap:butt;stroke-linejoin:miter;stroke-miterlimit:4;stroke-dasharray:none;stroke-opacity:1"
       d="m 264.28898,36.566329 c -0.34028,0 -0.44127,1.61e-4 -0.71985,0.255283 l -3.05821,2.972943 c -0.215,0.20897 -0.25191,0.414803 -0.25117,0.599964 v 11.937772 c 0,0.522301 -0.0274,0.547986 0.50953,0.538985 h 4.61677 c 0.49424,0 0.45273,-0.0089 0.46302,-0.51263 V 48.65448 c 0,-0.30457 0.0339,-0.334765 0.45477,-0.347266 h 7.07035 c 0.47755,0.0041 0.45284,0.05232 0.45683,0.517282 v 3.236494 c 0,0.398679 -0.004,0.443825 0.3633,0.666626 l 4.57904,2.644282 c 0.69731,0.363271 0.77391,0.44281 0.7679,-0.2775 V 40.849271 c 0,-0.64044 0.004,-0.810082 -0.51313,-1.286743 l -2.87219,-2.669087 c -0.30067,-0.2794 -0.38883,-0.327112 -0.85627,-0.327112 z m 1.77456,4.418851 h 7.6445 c 0.10364,0 0.18706,0.08342 0.18706,0.187068 v 3.011186 c 0,0.103648 -0.0834,0.187068 -0.18706,0.187068 h -7.6445 c -0.10363,0 -0.18706,-0.08342 -0.18706,-0.187068 v -3.011186 c 0,-0.103645 0.0834,-0.187068 0.18706,-0.187068 z"
       id="path950-1" />
  </g>
  <g
     inkscape:label="RatBody"
     inkscape:groupmode="layer"
     id="layer1"
     style="display:inline">
    <path
       style="display:inline;fill:#d10036;fill-opacity:1;stroke:#000000;stroke-width:0.05;stroke-linecap:butt;stroke-linejoin:miter;stroke-miterlimit:4;stroke-dasharray:none;stroke-opacity:1"
       d="m 27.715779,27.442416 c -13.213054,4.85528 -20.8409958,14.82262 -21.8729078,29.25298 -0.360111,3.18198 1.881555,3.99454 3.9143,3.94918 l 103.5115488,0.28594 -15.440946,-4.57509 c -1.16047,-0.4019 -2.5895,-0.62476 -4.28915,-0.6672 l -17.134479,-0.1011 c 0.969139,-10.75677 -4.811349,-19.43927 -16.020198,-26.71324 -0.346015,-0.22812 -0.430701,-0.2098 -0.675849,0.099 -5.581476,6.98532 -9.47539,7.32105 -13.034085,6.86463 -0.55485,-0.051 -0.471516,-0.0819 -0.04584,-0.25772 14.307919,-6.03723 10.274043,-24.31163 -0.79603,-27.6872002 -8.353732,-2.54729 -22.160704,3.4594002 -18.116368,19.5498202 z"
       id="path846"
       inkscape:connector-curvature="0"
       sodipodi:nodetypes="cccccccccccsc" />
  </g>
  <g
     inkscape:groupmode="layer"
     id="layer13"
     inkscape:label="RatEyeCircle">
    <path
       style="fill:#a4002a;fill-opacity:1;stroke:#000000;stroke-width:0;stroke-linecap:butt;stroke-linejoin:miter;stroke-miterlimit:4;stroke-dasharray:none;stroke-opacity:1"
       d="m 18.379746,51.970976 c 2.272688,-0.30091 5.171867,-1.36345 8.052673,-3.93582 -1.135253,0.23213 -2.165438,0.62383 -3.040507,0.54619 -2.433195,-0.21589 -3.674191,-1.92307 -2.493374,-4.82546 0.243352,-0.59814 0.902311,-1.19817 1.406449,-1.88248 -3.050043,0.86171 -5.436979,1.24077 -7.547193,4.92944 -2.370687,3.72818 1.470739,5.93822 3.621952,5.16813 z"
       id="path826"
       inkscape:connector-curvature="0"
       sodipodi:nodetypes="ccssccc" />
  </g>
  <g
     inkscape:groupmode="layer"
     id="layer2"
     inkscape:label="RatEye">
    <circle
       style="opacity:1;fill:#363636;fill-opacity:1;stroke:#000000;stroke-width:0;stroke-miterlimit:4;stroke-dasharray:none;stroke-opacity:1"
       id="path824"
       cx="17.663731"
       cy="48.631271"
       r="3.6886711" />
  </g>
  <g
     inkscape:groupmode="layer"
     id="layer5"
     inkscape:label="RatEar">
    <path
       style="fill:#a4002a;fill-opacity:1;stroke:#000000;stroke-width:0;stroke-linecap:butt;stroke-linejoin:miter;stroke-miterlimit:4;stroke-dasharray:none;stroke-opacity:1"
       d="m 31.10762,13.892816 c 5.711581,-3.03738 10.625509,-3.40407 14.251592,-1.83043 4.940254,2.14396 8.128887,8.43695 7.058427,12.87062 -0.510186,2.11311 -0.631722,2.98067 -2.002059,5.04385 4.127103,-5.56089 5.033845,-10.43146 -0.435685,-16.51295 -2.600887,-2.48737 -5.201917,-3.4847702 -7.817902,-3.6321602 -3.642466,-0.20523 -7.313927,1.3717002 -11.05437,4.0610702 z"
       id="path872"
       inkscape:connector-curvature="0"
       sodipodi:nodetypes="cssccscc" />
    <path
       style="display:inline;fill:#a4002a;fill-opacity:1;stroke:#000000;stroke-width:0;stroke-linecap:butt;stroke-linejoin:miter;stroke-miterlimit:4;stroke-dasharray:none;stroke-opacity:1"
       d="m 30.644521,22.043836 c 3.187533,1.39075 5.880466,2.95145 8.890108,0.94532 1.001698,-0.74382 1.072917,-0.84773 -0.03863,0.10092 l -2.892925,2.46896 c 2.63256,0.95878 5.431458,1.45072 8.811396,0.0948 0.239845,-0.0968 0.278172,-0.14638 0.127093,0.10929 l -1.487507,2.51732 c -0.09169,0.22974 -0.299542,0.36052 -0.471619,0.48558 -1.536728,1.02854 -3.351712,0.52963 -5.092232,0.23035 -5.130207,-1.48746 -7.187318,-3.98799 -8.045712,-6.72101 -0.131532,-0.35391 -0.10186,-0.35314 0.20003,-0.23148 z"
       id="path874"
       inkscape:connector-curvature="0"
       sodipodi:nodetypes="cccccccccccc" />
  </g>
  <g
     inkscape:groupmode="layer"
     id="layer4"
     inkscape:label="RatTeeth"
     style="display:inline">
    <rect
       style="opacity:1;fill:#353536;fill-opacity:1;stroke:#000000;stroke-width:0;stroke-miterlimit:4;stroke-dasharray:none;stroke-opacity:1"
       id="rect839"
       width="1.6610155"
       height="3.2440002"
       x="-16.134369"
       y="55.186707"
       ry="0.85641611"
       transform="matrix(0.7813843,-0.62405014,0.54836894,0.83623651,0,0)" />
    <rect
       style="opacity:1;fill:#353536;fill-opacity:1;stroke:#000000;stroke-width:0;stroke-miterlimit:4;stroke-dasharray:none;stroke-opacity:1"
       id="rect839-7"
       width="1.6610155"
       height="3.2440002"
       x="-12.841309"
       y="55.663177"
       ry="0.85641605"
       transform="matrix(0.7813843,-0.62405014,0.54836894,0.83623651,0,0)" />
    <rect
       style="opacity:1;fill:#353536;fill-opacity:1;stroke:#000000;stroke-width:0;stroke-miterlimit:4;stroke-dasharray:none;stroke-opacity:1"
       id="rect839-7-1"
       width="1.6610155"
       height="3.2440002"
       x="-9.6807747"
       y="56.16803"
       ry="0.85641605"
       transform="matrix(0.7813843,-0.62405014,0.54836894,0.83623651,0,0)" />
  </g>
  <g
     inkscape:groupmode="layer"
     id="layer6"
     inkscape:label="RatTale"
     style="display:inline">
    <path
       style="display:inline;fill:#a4002a;fill-opacity:1;stroke:#000000;stroke-width:0;stroke-linecap:butt;stroke-linejoin:miter;stroke-miterlimit:4;stroke-dasharray:none;stroke-opacity:1"
       d="m 76.382009,51.065476 c 0.163664,1.50722 0.126478,3.01443 0.02214,4.52165 l 8.079595,0.0534 1.81097,1.76332 c -5.443456,-0.18054 -4.52016,0.97159 -2.14457,2.43053 -7.308636,0.50717 -11.522781,-0.2886 -14.011229,-1.81099 2.786389,-0.71622 4.664001,-2.96929 6.243098,-6.95792 z"
       id="path882"
       inkscape:connector-curvature="0"
       sodipodi:nodetypes="cccccccc" />
  </g>
</svg>
